<svg id="Layer_1" data-name="Layer 1" xmlns="http://www.w3.org/2000/svg" viewBox="0 0 769.9 223.04"><defs><style>.cls-1{fill:#2c3054;}.cls-2{fill:#7cabcc;}</style></defs><path class="cls-1" d="M586.12,562.7v-6.17h18.51v7.9h-1.81Zm18.51,61.48v7.91H586.12v-6.18l16.7-1.73Zm-9.66-32c0-11.85,0-23.81-.34-35.65h20c-.34,11.61-.34,23.57-.34,35.65V596c0,12.31,0,24.27.34,36.12h-20c.34-11.62.34-23.58.34-35.66Zm37.7-35.65L641,563H604.63v-6.49h40.23l.8,19.8h-9.59Zm-2.71,40H604.63v-6.79H630Zm18,15.8-.8,19.81H604.63v-6.42H643.3L635,632.09l3.4-19.81Zm-21.52-20.61,1.73-11h6.67v24.76h-6.67l-1.73-11.6Z" transform="translate(-577.28 -416.21)"/><path class="cls-1" d="M674.93,564.43l-16.7-1.73v-6.17h37.11v5.92l-16.37,2Zm-12.48-7.9h20.74l19.35,58.18-3.32,2.49,20.5-60.67h7.46l-26.34,75.78H689.6Zm58,7.9-12.25-2v-5.92h24.91v6.17l-10.94,1.73Z" transform="translate(-577.28 -416.21)"/><path class="cls-1" d="M744.59,562.7v-6.17h37.1v6.17l-17,1.73h-3.37Zm20.07,61.48,17,1.73v6.18h-37.1v-6.18l16.7-1.73Zm-11.22-32c0-11.85,0-23.81-.34-35.65h20c-.35,11.61-.35,23.57-.35,35.65v4.17c0,11.93,0,23.89.35,35.74h-20c.34-11.62.34-23.58.34-35.66Z" transform="translate(-577.28 -416.21)"/><path class="cls-1" d="M796.68,562.7v-6.17h18.51v7.9h-1.81Zm18.51,61.48v7.91H796.68v-6.18l16.7-1.73Zm-9.65-32c0-11.85,0-23.81-.35-35.65h20c-.34,11.61-.34,23.57-.34,35.65V596c0,12.31,0,24.27.34,36.12h-20c.35-11.62.35-23.58.35-36Zm9.65,33.29h13.68c13.16,0,21.3-11.28,21.3-31.21,0-20.25-8.14-31.12-21.1-31.12H815.19v-6.61h15.67c24.51,0,39.27,14.31,39.27,37.56,0,24-16.19,38-41.32,38H815.19Z" transform="translate(-577.28 -416.21)"/><path class="cls-1" d="M882.59,562.7v-6.17H901.1v7.9h-1.82Zm18.51,61.48v7.91H882.59v-6.18l16.69-1.73Zm-9.66-32c0-11.85,0-23.81-.35-35.65h20c-.35,11.61-.35,23.57-.35,35.65V596c0,12.31,0,24.27.35,36.12h-20c.35-11.62.35-23.58.35-35.66Zm37.7-35.65,8.32,6.49H901.1v-6.49h40.22l.81,19.8h-9.6Zm-2.72,40H901.1v-6.79h25.32Zm18,15.8-.81,19.81H901.1v-6.42h38.66l-8.32,6.42,3.39-19.81Zm-21.52-20.61,1.72-11h6.67v24.76h-6.67l-1.72-11.6Z" transform="translate(-577.28 -416.21)"/><path class="cls-1" d="M958,625.91l12.25-1.73h3.29l14.8,1.73v6.18H958Zm6-65.32,6.63,3.26-12.48-1.06v-6.26h26l41.25,56.62v19.16h-9.73Zm3.77-4.06,7.41,6.26v69.3h-7.41Zm37,0h30.34v6.17l-11.67,1.73h-3.21l-15.46-1.73Zm13.15,0h7.41v75.78L1018,624.9Z" transform="translate(-577.28 -416.21)"/><path class="cls-1" d="M1107.12,621.12V627l-7.71,1.69,3.87-18H1112l-.46,17.67a49.41,49.41,0,0,1-24.14,5.86c-22.15,0-40-13.06-40-39.92,0-27.24,19.15-39.92,40.75-39.92a44.8,44.8,0,0,1,22.53,5.68l.46,17.84h-8.76l-4-18.18,7.71,1.77v6.36c-5.47-4.94-10.09-7-15.27-7-12.29,0-23.09,10-23.09,33.51s10.36,33.26,22.53,33.26C1096.1,627.65,1101.72,625.28,1107.12,621.12Z" transform="translate(-577.28 -416.21)"/><path class="cls-1" d="M1126.39,562.7v-6.17h18.5v7.9h-1.81Zm18.5,61.48v7.91h-18.5v-6.18l16.69-1.73Zm-9.65-32c0-11.85,0-23.81-.35-35.65h20c-.35,11.61-.35,23.57-.35,35.65V596c0,12.31,0,24.27.35,36.12h-20c.35-11.62.35-23.58.35-35.66Zm37.69-35.65,8.33,6.49h-36.37v-6.49h40.23l.81,19.8h-9.6Zm-2.71,40h-25.33v-6.79h25.33Zm18,15.8-.81,19.81h-42.53v-6.42h38.67l-8.33,6.42,3.4-19.81Zm-21.52-20.61,1.72-11h6.67v24.76h-6.67l-1.72-11.6Z" transform="translate(-577.28 -416.21)"/><path class="cls-2" d="M624.27,534c8.27,0,14-6,19.45-14.3l2,2.74c-8.5,18.08-18.93,26.22-34.18,26.22-19.47,0-34.3-15.11-34.3-42.67s18.43-44.15,37.82-44.15c14.87,0,22,8,30,23.05l-1.72,3.3c-6.74-8-11.63-12.05-18.65-12.05-10.4,0-18.34,9.53-18.34,29.51C606.38,524.23,613.71,534,624.27,534Zm46.38,4.23v7.87L637.07,548l-2.21-15v-56.1l1-1.83V439.78l-12-1.69V431l36.32-7.61,2.77,1.72-.69,23.63v97.4l-11.66-12.28Z" transform="translate(-577.28 -416.21)"/><path class="cls-2" d="M778.26,497.54a36.6,36.6,0,0,1-1,9.1H710.09v-8.93h32.2c8.25,0,10.38-3,10.38-10.57,0-11.1-5.39-16.59-11.63-16.59-7.14,0-13.66,7.66-13.66,32.07,0,20.61,10.37,29.91,23.21,29.91,9.26,0,15.63-3.8,20.82-9.07l5.93,5.48c-7.05,13.22-19.4,19.72-36,19.72-25,0-42.79-16.08-42.79-43.35,0-28.18,22.08-43.47,44.24-43.47C765.42,461.84,778.26,477.09,778.26,497.54Z" transform="translate(-577.28 -416.21)"/><path class="cls-2" d="M804.31,538.36,820.38,535l-7.16,11.24c.35-7.6.52-25,.52-35.49V439.42l-10.66-1.33V431l35.42-7.61,2.78,1.72-.69,23.63v25.75l.52,2.19v57.21l-4.32,14.67-32.48-2.3ZM870.08,505c0-20-6.87-28.52-17.08-28.52-9,0-16.7,9.29-22.3,15.05l-1.54-2.8c9.83-18.17,21.24-26.91,36.39-26.91,18.7,0,33.62,14.65,33.62,42.75,0,27.25-17.34,44.07-36.69,44.07-15.43,0-24.47-8.58-32.08-26l1.54-3.19c7.07,9.33,12.38,14.94,20.83,14.94C862.78,534.37,870.08,525,870.08,505Z" transform="translate(-577.28 -416.21)"/><path class="cls-2" d="M960.74,499c7.09-2,19.27-5.21,27.37-7.1V499c-8.1,2-17.37,4.49-22.4,6.76-7.77,3.23-12.83,8.92-12.83,16.87,0,8.47,4.52,12.39,10.31,12.39,3.29,0,6-1.35,11.47-5.29l6.9-5.1,1.79,2.45-7.21,7.71c-8.32,8.67-13.67,13.89-26.13,13.89-13.28,0-22.51-7.7-22.51-21.61C927.5,515,934.26,506.57,960.74,499Zm13.06,33.24V490c0-15-2.95-19.4-13.91-19.4-4.2,0-8.61.5-16.08,2.43l11.83-6.58-1.24,11.73c-.44,11.24-6,15.77-12.6,15.77-6.13,0-10.24-2.9-11.57-8.46.9-14.07,14.73-23.6,39.46-23.6,22,0,30.74,9.17,30.74,31.8v37.9c0,3.34,1.41,5,3.87,5,1.81,0,3.2-.91,5.21-3.72l4.55,3c-4.12,9.22-10.24,12.76-20.67,12.76C981.72,548.52,975.29,542.49,973.8,532.26Z" transform="translate(-577.28 -416.21)"/><path class="cls-2" d="M1081.75,534.85c3.16,0,6-1.28,9.32-3.76l4.2,4.08c-4.54,8.58-12.57,13.49-25.13,13.49-15.56,0-24.68-6.81-24.68-23.48,0-5.89.17-10.41.17-17V476h-11.08V465.93l20.3-2.58-9.84,6.79,10.85-29.45h17.52l-.38,30.43v52.2C1073,531.25,1076.65,534.85,1081.75,534.85Zm9.25-70.44V476h-31.56V464.41Z" transform="translate(-577.28 -416.21)"/><path class="cls-2" d="M1197.31,497.54a36.6,36.6,0,0,1-1,9.1h-67.21v-8.93h32.2c8.24,0,10.38-3,10.38-10.57,0-11.1-5.4-16.59-11.63-16.59-7.15,0-13.67,7.66-13.67,32.07,0,20.61,10.38,29.91,23.21,29.91,9.26,0,15.63-3.8,20.82-9.07l5.94,5.48c-7.05,13.22-19.41,19.72-36,19.72-25,0-42.78-16.08-42.78-43.35,0-28.18,22.07-43.47,44.23-43.47C1184.47,461.84,1197.31,477.09,1197.31,497.54Z" transform="translate(-577.28 -416.21)"/><text x="-577.28" y="-416.21"/><path class="cls-1" d="M1306.35,423a1.47,1.47,0,0,0,0-1.81l-3.47-2.72s-4.18-3.58-7.35-1.71c-2.84,2.22-1.17,4.26-1,4.43a6.08,6.08,0,0,0,1.33,1c.47.24,6.35,3.4,6.35,3.4s1.51.85,2.34-.34l5,4.08s1.84,1.87,2,6.13v28.84l4.51-.1c-.33,0-.66-28.91-.66-29.25a8.91,8.91,0,0,0-2.34-6.81A29.65,29.65,0,0,0,1306.35,423Z" transform="translate(-577.28 -416.21)"/><path class="cls-1" d="M1267.83,423.24a1.49,1.49,0,0,1,0-1.82l3.47-2.72s4.18-3.57,7.35-1.7c2.84,2.21,1.17,4.25,1,4.42a6.08,6.08,0,0,1-1.33,1c-.47.24-6.35,3.4-6.35,3.4s-1.51.85-2.34-.34l-5,4.09s-1.83,1.87-2,6.12v28.85l-4.51-.1c.33,0,.66-28.92.66-29.26a8.89,8.89,0,0,1,2.34-6.8A29.32,29.32,0,0,1,1267.83,423.24Z" transform="translate(-577.28 -416.21)"/><path class="cls-1" d="M1287.92,464.22l57.43.09s3.66-.61.65,5.86-9.36,21.09-9.36,21.09a4,4,0,0,1-2.67,1h-46Z" transform="translate(-577.28 -416.21)"/><path class="cls-1" d="M1288,464.22l-57.44.09s-3.65-.61-.64,5.86,9.36,21.09,9.36,21.09a4,4,0,0,0,2.67,1h46Z" transform="translate(-577.28 -416.21)"/><path class="cls-1" d="M1287.84,494.87h-45.09s-1.36-.21-1.36,2.18v4.28s-.34.82,3,.82h9.38l0,111.93h-6.86s-.83.34-.83,2.38V624s-.66.68,2.68.68h39.18V603.26l-15.28-.24s-2.68.34-2.68-3.06V516.61s0-3.74,3.68-3.74,14.39-.15,14.39-.15Z" transform="translate(-577.28 -416.21)"/><path class="cls-1" d="M1286.68,494.87h45.09s1.37-.21,1.37,2.18v4.28s.33.82-3,.82h-9.38l0,111.93h6.86s.83.34.83,2.38V624s.67.68-2.67.68H1286.6V603.26l15.29-.24s2.67.34,2.67-3.06V516.61s0-3.74-3.67-3.74-14.39-.15-14.39-.15Z" transform="translate(-577.28 -416.21)"/><path class="cls-1" d="M1287.69,515.14h-14.47s-1.42.28-1.42,2.32v81s-.33,2,2.34,2h13.37l.18-85" transform="translate(-577.28 -416.21)"/><path class="cls-1" d="M1286.83,515.14h14.47s1.42.28,1.42,2.32v81s.33,2-2.34,2H1287l-.18-85" transform="translate(-577.28 -416.21)"/><path class="cls-1" d="M1287.16,627.57h46s1.82-.22,1.82,1.14v9.54s.33,1-2.68,1h-45.13Z" transform="translate(-577.28 -416.21)"/><path class="cls-1" d="M1287.85,627.57h-46s-1.82-.22-1.82,1.14v9.54s-.34,1,2.67,1h45.13Z" transform="translate(-577.28 -416.21)"/></svg>