<svg id="Layer_1" data-name="Layer 1" xmlns="http://www.w3.org/2000/svg" xmlns:xlink="http://www.w3.org/1999/xlink" viewBox="0 0 507.94 130.29"><defs><style>.cls-1{fill:url(#linear-gradient);}</style><linearGradient id="linear-gradient" x1="1138.49" y1="1152.51" x2="1646.43" y2="1152.51" gradientUnits="userSpaceOnUse"><stop offset="0" stop-color="#1d0303"/><stop offset="0.14" stop-color="#560909"/><stop offset="0.29" stop-color="#870f0f"/><stop offset="0.42" stop-color="#ac1313"/><stop offset="0.52" stop-color="#c21515"/><stop offset="0.59" stop-color="#ca1616"/><stop offset="0.63" stop-color="#bd1c23"/><stop offset="0.72" stop-color="#9c2d46"/><stop offset="0.83" stop-color="#65487e"/><stop offset="0.97" stop-color="#1a6dcb"/><stop offset="1" stop-color="#0777df"/></linearGradient></defs><path class="cls-1" d="M1200,1112.75v104.91h-48.78c-7.07,0-12.69-7.36-12.69-16.49v-46.05c0-9.13,5.62-16.49,12.69-16.49h40.25v-25.88Zm-12.58,93.73c2.18,0,4-2.45,4-5.31v-46.05c0-2.86-1.87-5.31-4-5.31h-36.2c-2.18,0-4,2.45-4,5.31v46.05c0,2.86,1.87,5.31,4,5.31Zm84.44-51.36v28.61h-52.93v17.44c0,2.86,1.87,5.31,4,5.31h48.88v11.18h-48.88c-7,0-12.58-7.36-12.58-16.49v-46.05c0-9.13,5.61-16.49,12.58-16.49h36.2C1266.21,1138.63,1271.82,1146,1271.82,1155.12Zm-8.63,17.44v-17.44c0-2.86-1.77-5.31-4-5.31h-36.2c-2.18,0-4,2.45-4,5.31v17.44Zm82.58-17.44v46.05c0,9.13-5.62,16.49-12.59,16.49H1284.3V1112.75h8.53v25.88h40.35C1340.15,1138.63,1345.77,1146,1345.77,1155.12Zm-8.53,0c0-2.86-1.87-5.31-4.06-5.31H1297c-2.29,0-4.16,2.45-4.16,5.31v46.05c0,2.86,1.87,5.31,4.16,5.31h36.19c2.19,0,4.06-2.45,4.06-5.31Zm79.35,0v62.54h-48.88c-7,0-12.59-7.36-12.59-16.49v-28.61H1408v-17.44c0-2.86-1.77-5.31-4.06-5.31h-48.78v-11.18h48.78C1411,1138.63,1416.59,1146,1416.59,1155.12Zm-8.63,28.61h-44.31v17.44c0,2.86,1.87,5.31,4.06,5.31H1408Zm29.64-33.92v51.36c0,2.86,1.87,5.31,4.05,5.31h22v11.18h-22c-7.07,0-12.58-7.36-12.58-16.49v-88.42h8.53v25.88h26.1v11.18Zm104.93-42.9h-57.41v35.83h46.18v19.54h-46.18v35.83h57.41v19.55h-68.64V1087.37h68.64Zm91-19.54h12.9l-43.16,130.29H1592l-43.27-130.29h13l35.88,108.21Z" transform="translate(-1138.49 -1087.37)"/></svg>