<svg id="Layer_1" data-name="Layer 1" xmlns="http://www.w3.org/2000/svg" viewBox="0 0 503.47 251.49"><defs><style>.cls-1{fill:#2c3054;}.cls-2{fill:#2e3166;}.cls-3{fill:#7cabcc;}</style></defs><text x="-1151.86" y="-225"/><path class="cls-1" d="M1609.28,232.65a1.67,1.67,0,0,0,0-2.05l-3.91-3.07s-4.71-4-8.29-1.92c-3.2,2.49-1.32,4.8-1.13,5a7.46,7.46,0,0,0,1.51,1.15c.53.27,7.16,3.83,7.16,3.83s1.69,1,2.64-.38l5.65,4.6s2.07,2.11,2.26,6.91v32.53l5.09-.12c-.38,0-.76-32.6-.76-33a10,10,0,0,0-2.64-7.67C1614.23,235.39,1609.28,232.65,1609.28,232.65Z" transform="translate(-1151.86 -225)"/><path class="cls-1" d="M1565.85,232.92a1.67,1.67,0,0,1,0-2l3.91-3.07s4.71-4,8.29-1.91c3.2,2.49,1.32,4.79,1.13,5a6.8,6.8,0,0,1-1.51,1.15l-7.16,3.84s-1.69,1-2.63-.38l-5.66,4.6s-2.07,2.11-2.26,6.9v32.53l-5.09-.11c.38,0,.76-32.61.76-33a10,10,0,0,1,2.64-7.67C1560.9,235.67,1565.85,232.92,1565.85,232.92Z" transform="translate(-1151.86 -225)"/><path class="cls-1" d="M1588.5,279.13l64.76.11s4.12-.69.72,6.6-10.55,23.78-10.55,23.78a4.47,4.47,0,0,1-3,1.15H1588.5Z" transform="translate(-1151.86 -225)"/><path class="cls-1" d="M1588.62,279.13l-64.76.11s-4.11-.69-.72,6.6,10.55,23.78,10.55,23.78a4.48,4.48,0,0,0,3,1.15h51.91Z" transform="translate(-1151.86 -225)"/><path class="cls-1" d="M1588.41,313.68h-50.84s-1.54-.22-1.54,2.46V321s-.38.92,3.39.92H1550l0,126.21h-7.74s-.93.38-.93,2.68v8.44s-.76.77,3,.77h44.18V435.9l-17.23-.27s-3,.39-3-3.45v-94s0-4.22,4.15-4.22,16.22-.16,16.22-.16Z" transform="translate(-1151.86 -225)"/><path class="cls-1" d="M1587.1,313.68H1638s1.54-.22,1.54,2.46V321s.37.92-3.4.92h-10.57l0,126.21h7.73s.94.38.94,2.68v8.44s.75.77-3,.77H1587V435.9l17.23-.27s3,.39,3-3.45v-94s0-4.22-4.15-4.22-16.22-.16-16.22-.16Z" transform="translate(-1151.86 -225)"/><path class="cls-1" d="M1588.25,336.55h-16.32s-1.61.31-1.61,2.61v91.29s-.37,2.3,2.64,2.3H1588l.21-95.82" transform="translate(-1151.86 -225)"/><path class="cls-1" d="M1587.27,336.55h16.31s1.61.31,1.61,2.61v91.29s.38,2.3-2.64,2.3h-15.07l-.21-95.82" transform="translate(-1151.86 -225)"/><path class="cls-1" d="M1587.64,463.31h51.86s2-.25,2,1.28v10.76s.37,1.14-3,1.14h-50.89Z" transform="translate(-1151.86 -225)"/><path class="cls-1" d="M1588.43,463.31h-51.86s-2-.25-2,1.28v10.76s-.38,1.14,3,1.14h50.89Z" transform="translate(-1151.86 -225)"/><path class="cls-2" d="M1210.61,357.06V346.8h30.74v13.12h-3Zm30.74,102.1v13.12h-30.74V462l27.72-2.87Zm-16-53.15c0-19.68,0-39.54-.57-59.21H1258c-.58,19.29-.58,39.15-.58,59.21v6.29c0,20.45,0,40.31.58,60h-33.22c.57-19.29.57-39.15.57-59.2Zm62.6-59.21,13.83,10.79h-60.39V346.8h66.8l1.34,32.89h-15.93Zm-4.5,66.35h-42.06V401.88h42.06Zm29.9,26.24L1312,472.28h-70.62V461.63h64.21l-13.83,10.65,5.65-32.89Zm-35.74-34.22,2.87-18.32h11.07V428h-11.07l-2.87-19.28Z" transform="translate(-1151.86 -225)"/><path class="cls-2" d="M1367.65,359.92l-27.73-2.86V346.8h61.63v9.83l-27.19,3.29Zm-20.73-13.12h34.46l32.14,96.63-5.53,4.14,34-100.77h12.38l-43.74,125.86H1392Zm96.27,13.12-20.34-3.29V346.8h41.36v10.26L1446,359.92Z" transform="translate(-1151.86 -225)"/><path class="cls-3" d="M1185.22,324.51c5.87,0,10-4.28,13.81-10.15l1.45,1.94c-6,12.84-13.44,18.62-24.27,18.62-13.83,0-24.35-10.73-24.35-30.3s13.08-31.34,26.85-31.34c10.56,0,15.66,5.7,21.29,16.36l-1.22,2.34c-4.78-5.68-8.25-8.55-13.24-8.55-7.38,0-13,6.76-13,20.95C1172.52,317.57,1177.72,324.51,1185.22,324.51Zm32.94,3v5.58l-23.85,1.37-1.57-10.68V284l.71-1.3v-25l-8.55-1.2v-5.07l25.79-5.4,2,1.22-.49,16.78V333.1l-8.29-8.72Z" transform="translate(-1151.86 -225)"/><path class="cls-3" d="M1277.12,298.62a26.07,26.07,0,0,1-.67,6.46h-47.73v-6.34h22.86c5.86,0,7.38-2.15,7.38-7.5,0-7.88-3.83-11.78-8.26-11.78-5.08,0-9.7,5.44-9.7,22.77,0,14.63,7.36,21.23,16.48,21.23a19.71,19.71,0,0,0,14.78-6.44l4.21,3.89c-5,9.39-13.77,14-25.58,14-17.74,0-30.38-11.42-30.38-30.78,0-20,15.68-30.86,31.41-30.86C1268,273.28,1277.12,284.1,1277.12,298.62Z" transform="translate(-1151.86 -225)"/><path class="cls-3" d="M1278.18,327.6l11.41-2.4-5.08,8c.24-5.4.37-17.76.37-25.2V257.36l-7.58-.94v-5.07l25.16-5.4,2,1.22-.49,16.78v18.28l.37,1.56V324.4l-3.07,10.42-23.06-1.63Zm46.7-23.67c0-14.18-4.88-20.24-12.12-20.24-6.42,0-11.86,6.59-15.84,10.68l-1.1-2c7-12.9,15.09-19.1,25.85-19.1,13.28,0,23.87,10.4,23.87,30.35,0,19.34-12.31,31.29-26,31.29-11,0-17.38-6.1-22.79-18.49l1.1-2.27c5,6.63,8.79,10.61,14.79,10.61C1319.7,324.77,1324.88,318.11,1324.88,303.93Z" transform="translate(-1151.86 -225)"/><path class="cls-3" d="M1371.82,299.67c5-1.45,13.68-3.7,19.43-5v5c-5.75,1.43-12.33,3.19-15.9,4.8-5.52,2.3-9.12,6.34-9.12,12,0,6,3.22,8.8,7.33,8.8,2.33,0,4.24-1,8.14-3.76l4.9-3.62,1.27,1.74-5.12,5.47c-5.91,6.16-9.7,9.87-18.55,9.87-9.43,0-16-5.47-16-15.34C1348.21,311,1353,305,1371.82,299.67Zm9.27,23.6v-30c0-10.63-2.09-13.77-9.88-13.77a43.45,43.45,0,0,0-11.41,1.72l8.39-4.67-.88,8.33c-.3,8-4.24,11.2-8.94,11.2-4.35,0-7.27-2.06-8.22-6,.64-10,10.46-16.75,28-16.75,15.64,0,21.83,6.5,21.83,22.58v26.91c0,2.37,1,3.51,2.75,3.51,1.28,0,2.27-.65,3.7-2.64l3.23,2.12c-2.93,6.55-7.27,9.06-14.68,9.06C1386.71,334.82,1382.15,330.54,1381.09,323.27Z" transform="translate(-1151.86 -225)"/><path class="cls-3" d="M1440.3,325.11c2.24,0,4.24-.91,6.62-2.67l3,2.9c-3.22,6.09-8.93,9.58-17.84,9.58-11,0-17.53-4.84-17.53-16.68,0-4.17.12-7.39.12-12.07V283.33h-7.86v-7.15l14.41-1.84-7,4.83,7.71-20.91h12.44l-.27,21.6v37.06C1434.09,322.56,1436.68,325.11,1440.3,325.11Zm6.57-50v8.23h-22.41V275.1Z" transform="translate(-1151.86 -225)"/><path class="cls-3" d="M1504.92,298.62a25.57,25.57,0,0,1-.68,6.46h-47.72v-6.34h22.86c5.86,0,7.37-2.15,7.37-7.5,0-7.88-3.83-11.78-8.25-11.78-5.08,0-9.71,5.44-9.71,22.77,0,14.63,7.37,21.23,16.48,21.23a19.74,19.74,0,0,0,14.79-6.44l4.21,3.89c-5,9.39-13.78,14-25.58,14-17.75,0-30.38-11.42-30.38-30.78,0-20,15.67-30.86,31.41-30.86C1495.8,273.28,1504.92,284.1,1504.92,298.62Z" transform="translate(-1151.86 -225)"/></svg>