<svg id="Layer_1" data-name="Layer 1" xmlns="http://www.w3.org/2000/svg" xmlns:xlink="http://www.w3.org/1999/xlink" viewBox="0 0 183 156"><defs><style>.cls-1{fill:url(#linear-gradient);}.cls-2{fill:url(#linear-gradient-2);}</style><linearGradient id="linear-gradient" x1="1474" y1="1046.33" x2="1657" y2="1046.33" gradientUnits="userSpaceOnUse"><stop offset="0" stop-color="#1d0303"/><stop offset="0.14" stop-color="#560909"/><stop offset="0.29" stop-color="#870f0f"/><stop offset="0.42" stop-color="#ac1313"/><stop offset="0.52" stop-color="#c21515"/><stop offset="0.59" stop-color="#ca1616"/><stop offset="0.63" stop-color="#bd1c23"/><stop offset="0.72" stop-color="#9c2d46"/><stop offset="0.83" stop-color="#65487e"/><stop offset="0.97" stop-color="#1a6dcb"/><stop offset="1" stop-color="#0777df"/></linearGradient><linearGradient id="linear-gradient-2" x1="1489.89" y1="1130.68" x2="1644" y2="1130.68" xlink:href="#linear-gradient"/></defs><path class="cls-1" d="M1508.59,1018v56.66h-27.45c-4,0-7.14-4-7.14-8.91v-24.87c0-4.93,3.16-8.9,7.14-8.9h22.65v-14Zm-7.08,50.62c1.23,0,2.28-1.32,2.28-2.87v-24.87c0-1.54-1-2.87-2.28-2.87h-20.37c-1.23,0-2.28,1.33-2.28,2.87v24.87c0,1.55,1.05,2.87,2.28,2.87Zm47.52-27.74v15.46h-29.79v9.41c0,1.55,1,2.87,2.28,2.87H1549v6h-27.51c-3.92,0-7.08-4-7.08-8.91v-24.87c0-4.93,3.16-8.9,7.08-8.9h20.37C1545.87,1032,1549,1036,1549,1040.88Zm-4.86,9.42v-9.42c0-1.54-1-2.87-2.28-2.87h-20.37c-1.23,0-2.28,1.33-2.28,2.87v9.42Zm46.47-9.42v24.87c0,4.93-3.16,8.91-7.08,8.91h-27.51V1018h4.8v14h22.71C1587.48,1032,1590.64,1036,1590.64,1040.88Zm-4.8,0c0-1.54-1.06-2.87-2.28-2.87h-20.37a2.68,2.68,0,0,0-2.34,2.87v24.87a2.67,2.67,0,0,0,2.34,2.87h20.37c1.22,0,2.28-1.32,2.28-2.87Zm44.65,0v33.78H1603c-3.92,0-7.08-4-7.08-8.91V1050.3h29.73v-9.42c0-1.54-1-2.87-2.28-2.87H1595.9v-6h27.45C1627.33,1032,1630.49,1036,1630.49,1040.88Zm-4.86,15.46H1600.7v9.41c0,1.55,1,2.87,2.28,2.87h22.65Zm16.68-18.33v27.74c0,1.55,1,2.87,2.28,2.87H1657v6h-12.41c-4,0-7.08-4-7.08-8.91V1018h4.8v14H1657v6Z" transform="translate(-1474 -1018)"/><path class="cls-2" d="M1551.2,1100.36h-51.28v23.83h41.25v13h-41.25V1161h51.28v13h-61.31v-86.63h61.31Zm81.28-13H1644L1605.45,1174h-10l-38.65-86.63h11.61l32,72Z" transform="translate(-1474 -1018)"/></svg>